<?xml version="1.0"?>
<svg version="1.1" xmlns="http://www.w3.org/2000/svg" width="150" height="50" style=""><path fill="#7f5ef7" d="M24.984375,30.75l4.765625-9.40625l5.21875,0l-7.578125,13.953125l0,8.890625l-4.8125,0l0-8.734375l-7.578125-14.109375l5.25,0z"/><path fill="#92a3b0" d="M47.678046875,34.119140625q0,2.26953125,0.7451171875,3.431640625t2.4267578125,1.162109375q1.66796875,0,2.3994140625-1.1552734375t0.7314453125-3.4384765625q0-2.26953125-0.73828125-3.404296875t-2.419921875-1.134765625q-1.66796875,0-2.40625,1.1279296875t-0.73828125,3.4111328125z M58.24640625,34.119140625q0,3.732421875-1.96875,5.837890625t-5.482421875,2.10546875q-2.201171875,0-3.8828125-0.9638671875t-2.583984375-2.7685546875t-0.90234375-4.2109375q0-3.74609375,1.955078125-5.82421875t5.49609375-2.078125q2.201171875,0,3.8828125,0.95703125t2.583984375,2.748046875t0.90234375,4.197265625z M77.72568359375,41.7890625l-4.169921875,0l0-8.927734375q0-3.30859375-2.4609375-3.30859375q-1.75,0-2.529296875,1.189453125t-0.779296875,3.85546875l0,7.19140625l-4.169921875,0l0-21.2734375l4.169921875,0l0,4.333984375q0,0.505859375-0.095703125,2.37890625l-0.095703125,1.23046875l0.21875,0q1.39453125-2.2421875,4.4296875-2.2421875q2.693359375,0,4.087890625,1.44921875t1.39453125,4.15625l0,9.966796875z M87.2655078125,34.119140625q0,2.26953125,0.7451171875,3.431640625t2.4267578125,1.162109375q1.66796875,0,2.3994140625-1.1552734375t0.7314453125-3.4384765625q0-2.26953125-0.73828125-3.404296875t-2.419921875-1.134765625q-1.66796875,0-2.40625,1.1279296875t-0.73828125,3.4111328125z M97.8338671875,34.119140625q0,3.732421875-1.96875,5.837890625t-5.482421875,2.10546875q-2.201171875,0-3.8828125-0.9638671875t-2.583984375-2.7685546875t-0.90234375-4.2109375q0-3.74609375,1.955078125-5.82421875t5.49609375-2.078125q2.201171875,0,3.8828125,0.95703125t2.583984375,2.748046875t0.90234375,4.197265625z M111.70767578125,26.216796875q2.70703125,0,4.23828125,2.1123046875t1.53125,5.7900390625q0,3.787109375-1.5791015625,5.865234375t-4.2998046875,2.078125q-2.693359375,0-4.224609375-1.955078125l-0.287109375,0l-0.697265625,1.681640625l-3.185546875,0l0-21.2734375l4.169921875,0l0,4.94921875q0,0.943359375-0.1640625,3.021484375l0.1640625,0q1.462890625-2.26953125,4.333984375-2.26953125z M110.36783203125,29.552734375q-1.544921875,0-2.255859375,0.9501953125t-0.73828125,3.1376953125l0,0.451171875q0,2.4609375,0.7314453125,3.52734375t2.3173828125,1.06640625q1.28515625,0,2.0439453125-1.1826171875t0.7587890625-3.4384765625t-0.765625-3.3837890625t-2.091796875-1.1279296875z M132.554140625,41.7890625l-0.806640625-2.078125l-0.109375,0q-1.052734375,1.326171875-2.1669921875,1.8388671875t-2.9052734375,0.5126953125q-2.201171875,0-3.4658203125-1.2578125t-1.2646484375-3.58203125q0-2.43359375,1.7021484375-3.5888671875t5.1337890625-1.2783203125l2.65234375-0.08203125l0-0.669921875q0-2.32421875-2.37890625-2.32421875q-1.83203125,0-4.306640625,1.107421875l-1.380859375-2.81640625q2.638671875-1.380859375,5.8515625-1.380859375q3.076171875,0,4.716796875,1.33984375t1.640625,4.07421875l0,10.185546875l-2.912109375,0z M131.323671875,34.70703125l-1.61328125,0.0546875q-1.818359375,0.0546875-2.70703125,0.65625t-0.888671875,1.83203125q0,1.763671875,2.0234375,1.763671875q1.44921875,0,2.3173828125-0.833984375t0.8681640625-2.21484375l0-1.2578125z M141.09591796875,39.833984375q0-1.1484375,0.615234375-1.736328125t1.791015625-0.587890625q1.134765625,0,1.7568359375,0.6015625t0.6220703125,1.72265625q0,1.080078125-0.62890625,1.7021484375t-1.75,0.6220703125q-1.1484375,0-1.77734375-0.6083984375t-0.62890625-1.7158203125z"/></svg>
